<svg width="176" height="53" viewBox="0 0 176 53" fill="none" xmlns="http://www.w3.org/2000/svg">
<rect width="176" height="53" rx="26.5" fill="#6BFA88"/>
<path d="M23.49 32.374C22.6247 32.374 21.8107 32.2493 21.048 32C20.3 31.736 19.6253 31.3473 19.024 30.834C18.4373 30.306 17.9387 29.6313 17.528 28.81L20.036 27.248C20.4613 27.952 20.982 28.4873 21.598 28.854C22.214 29.2207 22.9033 29.404 23.666 29.404C24.326 29.404 24.8247 29.2647 25.162 28.986C25.4993 28.7073 25.668 28.3407 25.668 27.886C25.668 27.5927 25.5873 27.3433 25.426 27.138C25.2793 26.918 25.008 26.7127 24.612 26.522C24.216 26.3313 23.644 26.148 22.896 25.972C21.6787 25.6787 20.7107 25.312 19.992 24.872C19.288 24.432 18.7893 23.9113 18.496 23.31C18.2027 22.694 18.056 22.012 18.056 21.264C18.056 20.384 18.2687 19.6067 18.694 18.932C19.134 18.2427 19.7573 17.7 20.564 17.304C21.3707 16.908 22.3313 16.71 23.446 16.71C24.7073 16.71 25.7707 16.9593 26.636 17.458C27.516 17.9567 28.22 18.6093 28.748 19.416L26.24 21.154C25.8587 20.6553 25.3967 20.296 24.854 20.076C24.326 19.856 23.798 19.746 23.27 19.746C22.6393 19.746 22.148 19.8707 21.796 20.12C21.4587 20.3547 21.29 20.692 21.29 21.132C21.29 21.5427 21.466 21.8873 21.818 22.166C22.17 22.43 22.8593 22.6793 23.886 22.914C25.118 23.2073 26.108 23.5667 26.856 23.992C27.604 24.4173 28.1467 24.938 28.484 25.554C28.8213 26.17 28.99 26.9107 28.99 27.776C28.99 28.656 28.7627 29.4407 28.308 30.13C27.868 30.8193 27.2373 31.3693 26.416 31.78C25.5947 32.176 24.6193 32.374 23.49 32.374ZM34.2994 32.264C33.5074 32.264 32.8621 32.1467 32.3634 31.912C31.8794 31.6773 31.4981 31.3547 31.2194 30.944C30.9554 30.5187 30.7721 30.042 30.6694 29.514C30.5814 28.9713 30.5374 28.3993 30.5374 27.798V21.242H33.7494V27.622C33.7494 28.2233 33.8741 28.6267 34.1234 28.832C34.3727 29.0227 34.6807 29.118 35.0474 29.118C35.3701 29.118 35.6854 29.0667 35.9934 28.964C36.3014 28.8467 36.6021 28.6853 36.8954 28.48C37.1887 28.26 37.4527 27.996 37.6874 27.688L38.2374 29.316H37.3354V21.242H40.5694V32H38.1714L37.5114 29.866L38.6114 29.954C38.2594 30.3647 37.8487 30.7533 37.3794 31.12C36.9247 31.472 36.4407 31.7507 35.9274 31.956C35.4141 32.1613 34.8714 32.264 34.2994 32.264ZM48.791 32.264C47.8377 32.264 47.009 32.0513 46.305 31.626C45.6157 31.186 45.0804 30.548 44.699 29.712C44.3177 28.876 44.127 27.8493 44.127 26.632C44.127 25.4587 44.3177 24.454 44.699 23.618C45.095 22.7673 45.645 22.1147 46.349 21.66C47.053 21.2053 47.8744 20.978 48.813 20.978C49.7957 20.978 50.6537 21.22 51.387 21.704C52.135 22.1733 52.7144 22.8333 53.125 23.684C53.5504 24.5347 53.763 25.5173 53.763 26.632C53.763 27.732 53.5504 28.7073 53.125 29.558C52.6997 30.4087 52.113 31.076 51.365 31.56C50.617 32.0293 49.759 32.264 48.791 32.264ZM42.851 36.18V21.242H45.249L46.063 23.992H45.865V29.008H46.063V36.18H42.851ZM48.197 29.25C48.857 29.25 49.3997 29.008 49.825 28.524C50.265 28.0253 50.485 27.3947 50.485 26.632C50.485 25.8547 50.265 25.224 49.825 24.74C49.3997 24.2413 48.857 23.992 48.197 23.992C47.5517 23.992 47.009 24.2413 46.569 24.74C46.129 25.224 45.909 25.8473 45.909 26.61C45.909 27.3873 46.129 28.0253 46.569 28.524C47.009 29.008 47.5517 29.25 48.197 29.25ZM61.252 32.264C60.2986 32.264 59.47 32.0513 58.766 31.626C58.0766 31.186 57.5413 30.548 57.16 29.712C56.7786 28.876 56.588 27.8493 56.588 26.632C56.588 25.4587 56.7786 24.454 57.16 23.618C57.556 22.7673 58.106 22.1147 58.81 21.66C59.514 21.2053 60.3353 20.978 61.274 20.978C62.2566 20.978 63.1146 21.22 63.848 21.704C64.596 22.1733 65.1753 22.8333 65.586 23.684C66.0113 24.5347 66.224 25.5173 66.224 26.632C66.224 27.732 66.0113 28.7073 65.586 29.558C65.1606 30.4087 64.574 31.076 63.826 31.56C63.078 32.0293 62.22 32.264 61.252 32.264ZM55.312 36.18V21.242H57.71L58.524 23.992H58.326V29.008H58.524V36.18H55.312ZM60.658 29.25C61.318 29.25 61.8606 29.008 62.286 28.524C62.726 28.0253 62.946 27.3947 62.946 26.632C62.946 25.8547 62.726 25.224 62.286 24.74C61.8606 24.2413 61.318 23.992 60.658 23.992C60.0126 23.992 59.47 24.2413 59.03 24.74C58.59 25.224 58.37 25.8473 58.37 26.61C58.37 27.3873 58.59 28.0253 59.03 28.524C59.47 29.008 60.0126 29.25 60.658 29.25ZM72.7245 32.264C71.6098 32.264 70.6271 32.0293 69.7765 31.56C68.9258 31.076 68.2658 30.4087 67.7965 29.558C67.3271 28.7073 67.0925 27.732 67.0925 26.632C67.0925 25.5173 67.3271 24.5347 67.7965 23.684C68.2658 22.8333 68.9258 22.1733 69.7765 21.704C70.6271 21.22 71.6098 20.978 72.7245 20.978C73.8538 20.978 74.8438 21.22 75.6945 21.704C76.5451 22.1733 77.2051 22.8333 77.6745 23.684C78.1585 24.5347 78.4005 25.5173 78.4005 26.632C78.4005 27.732 78.1585 28.7073 77.6745 29.558C77.2051 30.4087 76.5451 31.076 75.6945 31.56C74.8438 32.0293 73.8538 32.264 72.7245 32.264ZM72.7245 29.14C73.4431 29.14 74.0225 28.9127 74.4625 28.458C74.9171 27.9887 75.1445 27.38 75.1445 26.632C75.1445 25.8693 74.9171 25.2533 74.4625 24.784C74.0225 24.3147 73.4431 24.08 72.7245 24.08C72.0351 24.08 71.4631 24.3147 71.0085 24.784C70.5685 25.2387 70.3485 25.8473 70.3485 26.61C70.3485 27.3727 70.5685 27.9887 71.0085 28.458C71.4631 28.9127 72.0351 29.14 72.7245 29.14ZM82.3305 21.242L83.1665 24.212V32H79.9545V21.242H82.3305ZM82.4625 25.994L81.9125 25.752V23.266L82.1105 23.002C82.2865 22.7527 82.5359 22.4667 82.8585 22.144C83.1959 21.8213 83.5845 21.55 84.0245 21.33C84.4792 21.0953 84.9412 20.978 85.4105 20.978C85.6452 20.978 85.8579 20.9927 86.0485 21.022C86.2392 21.0513 86.3932 21.1027 86.5105 21.176V24.102H85.7845C84.8459 24.102 84.1052 24.256 83.5625 24.564C83.0345 24.8573 82.6679 25.334 82.4625 25.994ZM92.9366 32.176C91.7486 32.176 90.8099 31.8827 90.1206 31.296C89.4459 30.7093 89.1086 29.7487 89.1086 28.414V21.374L89.0646 21.242L89.7246 18.646H92.3206V27.71C92.3206 28.2087 92.4379 28.568 92.6726 28.788C92.9073 28.9933 93.2153 29.096 93.5966 29.096C93.8166 29.096 94.0219 29.0813 94.2126 29.052C94.4179 29.008 94.5866 28.964 94.7186 28.92V31.934C94.4693 32.0073 94.1979 32.066 93.9046 32.11C93.6259 32.154 93.3033 32.176 92.9366 32.176ZM87.4366 24.19V21.242H94.7186V24.19H87.4366ZM109.2 20.978C109.918 20.978 110.505 21.1027 110.96 21.352C111.414 21.5867 111.759 21.9167 111.994 22.342C112.243 22.7673 112.404 23.2513 112.478 23.794C112.566 24.322 112.61 24.872 112.61 25.444V32H109.398V25.62C109.398 25.004 109.288 24.6007 109.068 24.41C108.848 24.2047 108.554 24.102 108.188 24.102C107.88 24.102 107.557 24.168 107.22 24.3C106.897 24.4173 106.582 24.586 106.274 24.806C105.966 25.026 105.694 25.2753 105.46 25.554L104.888 23.926H105.79V32H102.578V21.242H104.954L105.614 23.376L104.514 23.288C104.895 22.8627 105.328 22.474 105.812 22.122C106.296 21.77 106.824 21.4913 107.396 21.286C107.968 21.0807 108.569 20.978 109.2 20.978ZM119.646 32.264C118.532 32.264 117.549 32.0293 116.698 31.56C115.848 31.076 115.188 30.4087 114.718 29.558C114.249 28.7073 114.014 27.732 114.014 26.632C114.014 25.5173 114.249 24.5347 114.718 23.684C115.188 22.8333 115.848 22.1733 116.698 21.704C117.549 21.22 118.532 20.978 119.646 20.978C120.776 20.978 121.766 21.22 122.616 21.704C123.467 22.1733 124.127 22.8333 124.596 23.684C125.08 24.5347 125.322 25.5173 125.322 26.632C125.322 27.732 125.08 28.7073 124.596 29.558C124.127 30.4087 123.467 31.076 122.616 31.56C121.766 32.0293 120.776 32.264 119.646 32.264ZM119.646 29.14C120.365 29.14 120.944 28.9127 121.384 28.458C121.839 27.9887 122.066 27.38 122.066 26.632C122.066 25.8693 121.839 25.2533 121.384 24.784C120.944 24.3147 120.365 24.08 119.646 24.08C118.957 24.08 118.385 24.3147 117.93 24.784C117.49 25.2387 117.27 25.8473 117.27 26.61C117.27 27.3727 117.49 27.9887 117.93 28.458C118.385 28.9127 118.957 29.14 119.646 29.14ZM128.756 32L125.522 21.242H128.668L131 29.58H129.812L132.518 21.242H135.026L137.732 29.58H136.566L138.876 21.242H141.912L138.678 32H135.796L133.288 24.608H134.256L131.748 32H128.756Z" fill="#0D0C0C"/>
</svg>
